<?xml version="1.0" encoding="utf-8"?>
<svg version="1.1" xmlns="http://www.w3.org/2000/svg" xmlns:xlink="http://www.w3.org/1999/xlink" x="0px" y="0px"
	 width="20px" height="20px" viewBox="0 0 20 20" enable-background="new 0 0 20 20" xml:space="preserve"><path d="M13.8,6a5.74,5.74,0,0,0,.86-.63,5.61,5.61,0,0,0,1.6-2.29A2.17,2.17,0,0,0,16,.85,2.19,2.19,0,0,0,13.81.31a5.54,5.54,0,0,0-2.47,1.32A6,6,0,0,0,10,3.31,6,6,0,0,0,8.66,1.63,5.54,5.54,0,0,0,6.19.31,2.19,2.19,0,0,0,4,.85a2.17,2.17,0,0,0-.27,2.23,5.61,5.61,0,0,0,1.6,2.29A5.74,5.74,0,0,0,6.2,6H1v5H2v9H18V11h1V6ZM10.68,4.24A4.71,4.71,0,0,1,12,2.38a4.69,4.69,0,0,1,2-1.09,2.58,2.58,0,0,1,.46-.05,1,1,0,0,1,.77.27,1.31,1.31,0,0,1,.07,1.25A4.71,4.71,0,0,1,14,4.62a4.69,4.69,0,0,1-2,1.09,1.27,1.27,0,0,1-1.23-.22A1.31,1.31,0,0,1,10.68,4.24Zm-6-1.48a1.31,1.31,0,0,1,.07-1.25,1,1,0,0,1,.77-.27A2.58,2.58,0,0,1,6,1.29,4.6,4.6,0,0,1,8,2.38,4.64,4.64,0,0,1,9.32,4.24a1.31,1.31,0,0,1-.07,1.25A1.27,1.27,0,0,1,8,5.71,4.6,4.6,0,0,1,6,4.62,4.64,4.64,0,0,1,4.68,2.76ZM9,19H3V11H9Zm0-9H2V8H9Zm8,9H11V11h6Zm1-9H11V8h7Z"/></svg>